<svg xmlns="http://www.w3.org/2000/svg" width="307" height="308"><path d="M110.79 17.322c-15.964 0-29.205 10.945-32.996 25.734-.427 0-.747-.107-1.174-.107-18.847 0-34.17 15.323-34.17 34.17 0 2.563.32 5.072.908 7.475-15.6 6.407-26.535 21.676-26.535 39.508 0 6.727 1.71 12.974 4.432 18.633C8.44 150.102-.264 163.77-.264 179.627c0 17.78 10.892 33.048 26.375 39.455-.48 2.456-.746 4.965-.746 7.527 0 21.25 17.2 38.44 38.44 38.44 2.19 0 4.324-.267 6.406-.64 5.125 15.216 19.33 26.268 36.307 26.268 21.25 0 38.44-17.192 38.44-38.44V222.56H89.404c-28.953 0-52.443-23.49-52.443-52.443 0-22.87 14.64-42.318 35.035-49.492l-.072-2.95c0-32.194 26.076-58.27 58.27-58.27 5.103 0 10.05.662 14.764 1.893v-9.807c0-18.847-15.32-34.17-34.168-34.17zM144.957 61.3v12.834c6.218 1.8 12.04 4.88 17.086 8.97V68.88c-5.182-3.39-10.935-5.976-17.086-7.582zm17.086 7.582a58.62 58.62 0 0 1 18.662 19.732 34.78 34.78 0 0 1 19.41-5.9c19.302 0 34.963 15.66 34.963 34.963 0 4.443-.84 8.703-2.332 12.6 21.268 4.297 37.293 23.125 37.293 45.668 0 25.748-20.867 46.617-46.615 46.617h-61.38v29.676c0 21.25 17.2 38.44 38.44 38.44 16.978 0 31.18-11.05 36.307-26.268 2.082.374 4.217.64 6.406.64 21.25 0 38.44-17.192 38.44-38.44 0-2.563-.266-5.07-.746-7.527 15.483-6.407 26.375-21.676 26.375-39.455 0-15.857-8.704-29.525-21.518-36.893 2.776-5.66 4.432-11.906 4.432-18.633 0-17.832-10.945-33.1-26.535-39.508.534-2.403.908-4.912.908-7.475 0-18.847-15.323-34.17-34.17-34.17-.427 0-.8.107-1.174.107-3.79-14.79-17.033-25.734-32.996-25.734-18.847 0-34.168 15.27-34.168 34.17v17.39zm0 153.68v-13.008l-17.086-.104v13.11h17.086zm-17.086-13.11V74.133c-3.83-1.108-7.808-1.732-11.848-1.807-1.24-.023-2.483.006-3.73.088-25.494.894-47.003 25.728-44.473 51.07-1.306 6.27-9.265 5.103-13.043 8.937-19.846 12.75-25.353 42.73-9.94 60.986 9.776 12.608 26.504 17.966 42.02 16.02l41.016.02zm17.086.104c21.32.107 42.63.043 63.9-.998 22.396-4.9 35.565-32.957 23.73-52.918-6.337-11.868-19.36-19.5-32.756-19.756 11.386-14.248 2.65-38.796-15.584-41.676-8.997-1.916-18.428 1.606-25 7.8-3.156-7.468-8.15-13.93-14.29-18.902v126.45z"/></svg>