<?xml version="1.0" encoding="UTF-8" standalone="no"?>
<svg
   xmlns:dc="http://purl.org/dc/elements/1.1/"
   xmlns:cc="http://creativecommons.org/ns#"
   xmlns:rdf="http://www.w3.org/1999/02/22-rdf-syntax-ns#"
   xmlns:svg="http://www.w3.org/2000/svg"
   xmlns="http://www.w3.org/2000/svg"
   xmlns:sodipodi="http://sodipodi.sourceforge.net/DTD/sodipodi-0.dtd"
   xmlns:inkscape="http://www.inkscape.org/namespaces/inkscape"
   viewBox="0 0 307 308"
   version="1.1"
   id="svg4"
   sodipodi:docname="thought-tank-logo.svg"
   width="307"
   height="308"
   inkscape:version="0.92.4 (fd57863, 2020-04-02)">
  <metadata
     id="metadata10">
    <rdf:RDF>
      <cc:Work
         rdf:about="">
        <dc:format>image/svg+xml</dc:format>
        <dc:type
           rdf:resource="http://purl.org/dc/dcmitype/StillImage" />
        <dc:title></dc:title>
      </cc:Work>
    </rdf:RDF>
  </metadata>
  <defs
     id="defs8" />
  <sodipodi:namedview
     pagecolor="#ffffff"
     bordercolor="#666666"
     borderopacity="1"
     objecttolerance="10"
     gridtolerance="10"
     guidetolerance="10"
     inkscape:pageopacity="0"
     inkscape:pageshadow="2"
     inkscape:window-width="1319"
     inkscape:window-height="713"
     id="namedview6"
     showgrid="false"
     inkscape:zoom="0.921875"
     inkscape:cx="150.7051"
     inkscape:cy="173.3565"
     inkscape:window-x="47"
     inkscape:window-y="27"
     inkscape:window-maximized="1"
     inkscape:current-layer="svg4" />
  <path
     style="stroke-width:0.53389829"
     d="M 110.78906 17.322266 C 94.825504 17.322266 81.583649 28.267661 77.792969 43.056641 C 77.365849 43.056641 77.046261 42.949219 76.619141 42.949219 C 57.772531 42.949219 42.449219 58.272531 42.449219 77.119141 C 42.449219 79.681852 42.770132 82.19121 43.357422 84.59375 C 27.767592 91.00053 16.822266 106.26936 16.822266 124.10156 C 16.822266 130.82868 18.531026 137.07506 21.253906 142.73438 C 8.4403462 150.10217 -0.26367188 163.77017 -0.26367188 179.62695 C -0.26367188 197.40577 10.628278 212.67525 26.111328 219.08203 C 25.630828 221.53796 25.365234 224.04666 25.365234 226.60938 C 25.365234 247.85853 42.555537 265.05078 63.804688 265.05078 C 65.993678 265.05078 68.128737 264.78389 70.210938 264.41016 C 75.336367 279.62627 89.53961 290.67773 106.51758 290.67773 C 127.76673 290.67773 144.95703 273.48548 144.95703 252.23633 L 144.95703 222.56055 L 89.404297 222.56055 C 60.451678 222.56055 36.960938 199.06981 36.960938 170.11719 C 36.960938 147.24645 51.601798 127.79942 71.996094 120.625 C 71.959694 119.6417 71.923828 118.65908 71.923828 117.67578 C 71.923828 85.481923 97.999509 59.40625 130.19336 59.40625 C 135.29646 59.40625 140.24187 60.068118 144.95703 61.298828 L 144.95703 51.492188 C 144.95703 32.645578 129.63567 17.322266 110.78906 17.322266 z M 144.95703 61.298828 L 144.95703 74.132812 C 151.17527 75.932369 156.99596 79.014236 162.04297 83.101562 L 162.04297 68.880859 C 156.8609 65.489714 151.10838 62.904399 144.95703 61.298828 z M 162.04297 68.880859 C 169.69882 73.890853 176.11073 80.651957 180.70508 88.613281 C 186.24068 84.898602 192.9408 82.712891 200.11523 82.712891 C 219.41698 82.712891 235.07812 98.374032 235.07812 117.67578 C 235.07813 122.11882 234.23925 126.37863 232.74609 130.27539 C 254.01444 134.57276 270.03906 153.40037 270.03906 175.94336 C 270.03905 201.69116 249.17163 222.56055 223.42383 222.56055 L 162.04297 222.56055 L 162.04297 252.23633 C 162.04297 273.48548 179.23327 290.67773 200.48242 290.67773 C 217.46039 290.67773 231.66363 279.62627 236.78906 264.41016 C 238.87126 264.78389 241.00632 265.05078 243.19531 265.05078 C 264.44446 265.05078 281.63477 247.85853 281.63477 226.60938 C 281.63477 224.04666 281.36918 221.53796 280.88867 219.08203 C 296.37172 212.67525 307.26367 197.40577 307.26367 179.62695 C 307.26367 163.77017 298.55965 150.10217 285.74609 142.73438 C 288.52236 137.07505 290.17773 130.82868 290.17773 124.10156 C 290.17773 106.26936 279.23241 91.00053 263.64258 84.59375 C 264.17648 82.19121 264.55078 79.681852 264.55078 77.119141 C 264.55078 58.272531 249.22747 42.949219 230.38086 42.949219 C 229.95374 42.949219 229.58076 43.056641 229.20703 43.056641 C 225.41635 28.267661 212.1745 17.322266 196.21094 17.322266 C 177.36433 17.322266 162.04297 32.592187 162.04297 51.492188 L 162.04297 68.880859 z M 162.04297 222.56055 L 162.04297 209.55273 C 156.34776 209.5242 150.65254 209.48769 144.95703 209.44922 L 144.95703 222.56055 L 162.04297 222.56055 z M 144.95703 209.44922 L 144.95703 74.132812 C 141.12755 73.024561 137.14938 72.400376 133.10938 72.326172 C 131.87061 72.303422 130.62652 72.331812 129.37891 72.414062 C 103.88521 73.308542 82.375423 98.142126 84.90625 123.48438 C 83.600382 129.75367 75.640859 128.58688 71.863281 132.42188 C 52.017478 145.17071 46.509804 175.15143 61.921875 193.4082 C 71.698357 206.0165 88.425535 211.37402 103.94141 209.42773 C 117.606 209.2799 131.28078 209.35685 144.95703 209.44922 z M 162.04297 209.55273 C 183.36159 209.65953 204.67419 209.59534 225.94336 208.55469 C 248.33958 203.66518 261.50807 175.5975 249.67383 155.63672 C 243.33703 143.76884 230.31493 136.13638 216.91797 135.88086 C 228.30376 121.63308 219.56935 97.084608 201.33398 94.205078 C 192.33657 92.289178 182.90557 95.810657 176.33398 102.00391 C 173.1784 94.535471 168.18335 88.074356 162.04297 83.101562 L 162.04297 209.55273 z "
     id="path2" />
</svg>
